<svg width="42" height="22" viewBox="0 0 42 22" fill="none" xmlns="http://www.w3.org/2000/svg">
<path fill-rule="evenodd" clip-rule="evenodd" d="M15.2962 7.79735C15.4838 7.60985 15.7381 7.50451 16.0032 7.50451C16.2684 7.50451 16.5227 7.60985 16.7102 7.79735L20.9872 12.0891L25.2932 7.79735C25.4808 7.60985 25.7351 7.50451 26.0002 7.50451C26.2654 7.50451 26.5197 7.60985 26.7072 7.79735C26.7999 7.88947 26.8735 7.99903 26.9237 8.11971C26.9739 8.24038 26.9998 8.36978 26.9998 8.50048C26.9998 8.63118 26.9739 8.76058 26.9237 8.88126C26.8735 9.00193 26.7999 9.11149 26.7072 9.20361L21.6913 14.2045C21.5029 14.3909 21.2487 14.4954 20.9837 14.4954C20.7188 14.4954 20.4646 14.3909 20.2762 14.2045L15.2922 9.20361C15.1996 9.11136 15.1261 9.00163 15.0761 8.8808C15.0261 8.75996 15.0005 8.63043 15.0009 8.49966C15.0013 8.36888 15.0275 8.23946 15.0782 8.11891C15.1289 7.99836 15.203 7.88907 15.2962 7.79735Z" fill="url(#paint0_linear_861_4868)"/>
<defs>
<linearGradient id="paint0_linear_861_4868" x1="32.3375" y1="4.40503" x2="21.2668" y2="21.9812" gradientUnits="userSpaceOnUse">
<stop stop-color="#0A6FCC"/>
<stop offset="1" stop-color="#3BED4D" stop-opacity="0.75"/>
</linearGradient>
</defs>
</svg>
