<svg width="123" height="40" viewBox="0 0 123 40" fill="none" xmlns="http://www.w3.org/2000/svg">
<path fill-rule="evenodd" clip-rule="evenodd" d="M9.99284 0.00033988C9.99284 0.000152169 9.99299 0 9.99318 0H19.992C19.9922 0 19.9924 0.000180608 19.9924 0.000403399C19.9924 0.000626108 19.9925 0.000806682 19.9928 0.000806802C31.0329 0.00674209 39.9808 8.95833 39.9808 19.9998C39.9808 31.0425 31.0309 39.9948 19.9892 39.9988C19.9851 39.9988 19.9818 39.9955 19.9818 39.9915C19.9818 39.9874 19.9785 39.9841 19.9744 39.9841H15.0285C14.3508 39.9841 13.8014 39.4347 13.8014 38.757V31.2152C13.8014 30.5375 14.3508 29.9881 15.0285 29.9881H20.4611C25.7614 29.7383 29.9819 25.362 29.9819 19.9999C29.9819 14.4773 25.505 10.0004 19.9824 10.0004H19.9822C19.982 10.0004 19.9818 10.0002 19.9818 9.99994C19.9818 9.9997 19.9816 9.99951 19.9813 9.99951H12.0527H10.9716C10.4347 9.99951 9.99951 10.4347 9.99951 10.9716V38.7729C9.99951 39.4505 9.45014 39.9999 8.77245 39.9999H2.05986H0.978799C0.438223 39.9999 0 39.5617 0 39.0211V1.22774C0 0.550055 0.549374 0.00067976 1.22706 0.00067976H9.9925C9.99269 0.00067976 9.99284 0.00052759 9.99284 0.00033988Z" fill="url(#paint0_linear_766_1933)"/>
<path d="M54.3448 29.8409C53.8199 29.8409 53.4192 29.6958 53.143 29.4057C52.8667 29.1156 52.7285 28.7081 52.7285 28.1831V16.6825C52.7285 16.1437 52.8667 15.7362 53.143 15.4599C53.4331 15.1836 53.8406 15.0454 54.3655 15.0454H59.401C61.0311 15.0454 62.2882 15.4599 63.1723 16.2888C64.0565 17.1038 64.4985 18.2435 64.4985 19.7079C64.4985 21.1722 64.0565 22.3188 63.1723 23.1477C62.2882 23.9766 61.0311 24.391 59.401 24.391H55.9404V28.1831C55.9404 28.7081 55.8023 29.1156 55.526 29.4057C55.2635 29.6958 54.8698 29.8409 54.3448 29.8409ZM55.9404 21.9044H58.8622C59.6911 21.9044 60.3196 21.7179 60.7479 21.3449C61.19 20.9719 61.411 20.4262 61.411 19.7079C61.411 18.9895 61.19 18.4507 60.7479 18.0916C60.3196 17.7324 59.6911 17.5528 58.8622 17.5528H55.9404V21.9044Z" fill="url(#paint1_linear_766_1933)"/>
<path d="M68.1055 29.8409C67.5805 29.8409 67.1799 29.6958 66.9036 29.4057C66.6273 29.1156 66.4891 28.7081 66.4891 28.1831V16.6825C66.4891 16.1437 66.6273 15.7362 66.9036 15.4599C67.1937 15.1836 67.6012 15.0454 68.1262 15.0454H73.1616C74.7917 15.0454 76.0488 15.4392 76.933 16.2266C77.8171 17.014 78.2592 18.1123 78.2592 19.5214C78.2592 20.4331 78.0589 21.2206 77.6582 21.8837C77.2576 22.5468 76.6774 23.0579 75.9176 23.4171C75.1716 23.7763 74.2529 23.9559 73.1616 23.9559L73.3274 23.6036H74.177C74.7572 23.6036 75.2614 23.7486 75.6897 24.0387C76.1317 24.315 76.5116 24.7433 76.8294 25.3235L78.1141 27.7065C78.3075 28.0519 78.3973 28.3903 78.3835 28.7219C78.3697 29.0534 78.2454 29.3228 78.0105 29.53C77.7757 29.7373 77.4303 29.8409 76.9744 29.8409C76.5185 29.8409 76.1455 29.7442 75.8554 29.5508C75.5791 29.3574 75.3305 29.0603 75.1095 28.6597L73.1201 24.992C72.9129 24.6051 72.6574 24.3427 72.3534 24.2045C72.0633 24.0664 71.7042 23.9973 71.2759 23.9973H69.701V28.1831C69.701 28.7081 69.5629 29.1156 69.2866 29.4057C69.0241 29.6958 68.6304 29.8409 68.1055 29.8409ZM69.701 21.6765H72.5814C73.4379 21.6765 74.0803 21.5038 74.5085 21.1584C74.9506 20.813 75.1716 20.295 75.1716 19.6043C75.1716 18.9273 74.9506 18.4162 74.5085 18.0708C74.0803 17.7255 73.4379 17.5528 72.5814 17.5528H69.701V21.6765Z" fill="url(#paint2_linear_766_1933)"/>
<path d="M87.5924 29.8823C86.1557 29.8823 84.8917 29.5715 83.8003 28.9498C82.7228 28.3144 81.8801 27.4302 81.2723 26.2974C80.6782 25.1646 80.3812 23.8453 80.3812 22.3396C80.3812 21.1929 80.547 20.1638 80.8786 19.252C81.2239 18.3264 81.7143 17.539 82.3498 16.8897C82.9853 16.2266 83.7451 15.7155 84.6292 15.3563C85.5272 14.9971 86.5149 14.8175 87.5924 14.8175C89.0568 14.8175 90.3277 15.1283 91.4053 15.75C92.4828 16.3716 93.3186 17.2489 93.9126 18.3817C94.5205 19.5007 94.8244 20.813 94.8244 22.3188C94.8244 23.4654 94.6517 24.5015 94.3063 25.4271C93.961 26.3527 93.4706 27.147 92.8351 27.8101C92.1996 28.4732 91.4398 28.9844 90.5557 29.3435C89.6715 29.7027 88.6838 29.8823 87.5924 29.8823ZM87.5924 27.147C88.4075 27.147 89.0982 26.9605 89.6646 26.5875C90.2448 26.2007 90.6869 25.6481 90.9908 24.9298C91.3086 24.1976 91.4674 23.3342 91.4674 22.3396C91.4674 20.8199 91.129 19.6457 90.4521 18.8168C89.7752 17.9741 88.8219 17.5528 87.5924 17.5528C86.7912 17.5528 86.1005 17.7393 85.5203 18.1123C84.94 18.4853 84.498 19.031 84.1941 19.7493C83.8901 20.4677 83.7382 21.3311 83.7382 22.3396C83.7382 23.8453 84.0766 25.0265 84.7535 25.883C85.4305 26.7257 86.3768 27.147 87.5924 27.147Z" fill="url(#paint3_linear_766_1933)"/>
<path d="M97.6136 29.8409C97.1991 29.8409 96.8538 29.7304 96.5775 29.5093C96.315 29.2745 96.1631 28.9913 96.1216 28.6597C96.0802 28.3144 96.1907 27.9621 96.4532 27.6029L101.033 21.5314V22.9612L96.6397 17.1176C96.3772 16.7446 96.2598 16.3924 96.2874 16.0608C96.3288 15.7155 96.4808 15.4323 96.7433 15.2112C97.0196 14.9764 97.358 14.8589 97.7586 14.8589C98.104 14.8589 98.401 14.9418 98.6497 15.1076C98.9122 15.2734 99.1746 15.5359 99.4371 15.895L102.856 20.6196H101.82L105.219 15.895C105.481 15.522 105.743 15.2596 106.006 15.1076C106.268 14.9418 106.572 14.8589 106.918 14.8589C107.332 14.8589 107.671 14.9695 107.933 15.1905C108.209 15.4115 108.361 15.6947 108.389 16.0401C108.43 16.3716 108.313 16.7308 108.037 17.1176L103.623 22.9612V21.5314L108.182 27.6029C108.458 27.9621 108.575 28.3144 108.534 28.6597C108.506 28.9913 108.354 29.2745 108.078 29.5093C107.816 29.7304 107.47 29.8409 107.042 29.8409C106.71 29.8409 106.413 29.758 106.151 29.5922C105.902 29.4264 105.64 29.1571 105.364 28.7841L101.799 23.873H102.856L99.2921 28.7841C99.0296 29.1571 98.7671 29.4264 98.5046 29.5922C98.2421 29.758 97.9451 29.8409 97.6136 29.8409Z" fill="url(#paint4_linear_766_1933)"/>
<path d="M115.924 29.8409C115.399 29.8409 114.998 29.6958 114.722 29.4057C114.446 29.1156 114.307 28.7012 114.307 28.1624V22.1531L114.971 23.9973L110.08 17.0555C109.887 16.7654 109.804 16.4545 109.832 16.123C109.859 15.7776 109.997 15.4806 110.246 15.2319C110.495 14.9833 110.847 14.8589 111.303 14.8589C111.634 14.8589 111.931 14.9418 112.194 15.1076C112.47 15.2734 112.733 15.5359 112.981 15.895L116.297 20.6818H115.634L118.949 15.895C119.212 15.522 119.467 15.2596 119.716 15.1076C119.978 14.9418 120.282 14.8589 120.628 14.8589C121.07 14.8589 121.415 14.9764 121.664 15.2112C121.912 15.4323 122.044 15.7155 122.057 16.0608C122.071 16.3924 121.954 16.7377 121.705 17.0969L116.877 23.9973L117.519 22.1531V28.1624C117.519 29.2814 116.988 29.8409 115.924 29.8409Z" fill="url(#paint5_linear_766_1933)"/>
<defs>
<linearGradient id="paint0_linear_766_1933" x1="-17.7858" y1="57.7344" x2="52.2313" y2="-6.99992" gradientUnits="userSpaceOnUse">
<stop stop-color="#0A6FCC"/>
<stop offset="1" stop-color="#3BED4D" stop-opacity="0.75"/>
</linearGradient>
<linearGradient id="paint1_linear_766_1933" x1="21.8865" y1="36.5615" x2="33.6639" y2="-13.574" gradientUnits="userSpaceOnUse">
<stop stop-color="#0A6FCC"/>
<stop offset="1" stop-color="#3BED4D" stop-opacity="0.75"/>
</linearGradient>
<linearGradient id="paint2_linear_766_1933" x1="21.8865" y1="36.5615" x2="33.6639" y2="-13.574" gradientUnits="userSpaceOnUse">
<stop stop-color="#0A6FCC"/>
<stop offset="1" stop-color="#3BED4D" stop-opacity="0.75"/>
</linearGradient>
<linearGradient id="paint3_linear_766_1933" x1="21.8865" y1="36.5615" x2="33.6639" y2="-13.574" gradientUnits="userSpaceOnUse">
<stop stop-color="#0A6FCC"/>
<stop offset="1" stop-color="#3BED4D" stop-opacity="0.75"/>
</linearGradient>
<linearGradient id="paint4_linear_766_1933" x1="21.8865" y1="36.5615" x2="33.6639" y2="-13.574" gradientUnits="userSpaceOnUse">
<stop stop-color="#0A6FCC"/>
<stop offset="1" stop-color="#3BED4D" stop-opacity="0.75"/>
</linearGradient>
<linearGradient id="paint5_linear_766_1933" x1="21.8865" y1="36.5615" x2="33.6639" y2="-13.574" gradientUnits="userSpaceOnUse">
<stop stop-color="#0A6FCC"/>
<stop offset="1" stop-color="#3BED4D" stop-opacity="0.75"/>
</linearGradient>
</defs>
</svg>
