<svg width="22" height="18" viewBox="0 0 22 18" fill="none" xmlns="http://www.w3.org/2000/svg">
<path opacity="0.6" d="M19.8439 0.896432C17.0338 1.98725 4.98458 6.66497 1.65538 7.93988C-0.577324 8.7565 0.729733 9.52217 0.729733 9.52217C0.729733 9.52217 2.63562 10.1346 4.2695 10.5939C5.90315 11.0533 6.77445 10.543 6.77445 10.543L14.4528 5.69424C17.1756 3.9589 16.5222 5.38793 15.8686 6.00055C14.4528 7.32769 12.1112 9.42006 10.1507 11.1045C9.27939 11.819 9.71492 12.4314 10.0963 12.7377C11.5121 13.8606 15.3787 16.1574 15.5963 16.3105C16.7467 17.0738 19.0096 18.1725 19.3538 15.8511L20.7152 7.83799C21.1509 5.13299 21.5865 2.63198 21.6408 1.91747C21.8044 0.18192 19.8439 0.896432 19.8439 0.896432Z" fill="#011624"/>
</svg>
