<svg width="57" height="18" viewBox="0 0 57 18" fill="none" xmlns="http://www.w3.org/2000/svg">
<path d="M10.3784 2.53281C10.031 1.18226 8.92323 0.271391 7.41873 0.251953H0.359624L0.286926 0.579677C5.79352 1.93723 10.4155 6.11445 11.9149 10.0436L10.3784 2.53281Z" fill="#EFC75E"/>
<path d="M23.4685 0.251953L20.6222 17.9642H25.1716L28.0162 0.251953H23.4685ZM37.1913 7.46695C35.6015 6.68185 34.6269 6.15197 34.6269 5.34899C34.6463 4.61889 35.451 3.87092 37.2481 3.87092C38.7262 3.83379 39.8125 4.18115 40.6367 4.52676L41.0496 4.71103L41.6681 1.00518C40.7695 0.657819 39.3447 0.275084 37.5848 0.275084C33.0921 0.275084 29.9285 2.61095 29.9089 5.95176C29.8718 8.41708 32.1738 9.78513 33.8966 10.6058C35.6565 11.4477 36.2556 11.9935 36.2556 12.7415C36.2361 13.8898 34.8325 14.4197 33.5228 14.4197C31.7081 14.4197 30.7332 14.1468 29.2534 13.5069L28.6544 13.234L28.0181 17.0853C29.0868 17.5603 31.0522 17.9784 33.0922 17.9998C37.8668 17.9998 40.9736 15.6993 41.0126 12.1389C41.0282 10.1857 39.8143 8.6898 37.1913 7.46695ZM53.3315 0.306768H49.8116C48.727 0.306768 47.9028 0.618748 47.4332 1.73177L40.6754 17.9642H45.45L46.7649 14.4499H52.1067L52.789 17.9784H57L53.3315 0.306768ZM48.0891 10.9032C48.1812 10.9121 49.9217 5.16627 49.9217 5.16627L51.3076 10.9032H48.0891ZM16.8207 0.251953L12.3634 12.2858L11.8778 9.91264C11.0536 7.17441 8.46974 4.19884 5.58611 2.72077L9.6677 17.9466H14.4813L21.6343 0.253896H16.8207V0.251953Z" fill="#2394BC"/>
</svg>
