<svg width="92" height="31" viewBox="0 0 92 31" fill="none" xmlns="http://www.w3.org/2000/svg">
<path fill-rule="evenodd" clip-rule="evenodd" d="M7.49457 0.000318889C7.49457 0.000142772 7.49471 0 7.49488 0H14.9939C14.9941 0 14.9942 0.000133457 14.9942 0.000298084C14.9942 0.00046265 14.9943 0.000596082 14.9945 0.000596171C23.2745 0.00505811 29.9855 6.71874 29.9855 14.9998C29.9855 23.2819 23.273 29.9961 14.9917 29.9991C14.9887 29.9991 14.9862 29.9966 14.9862 29.9937C14.9862 29.9907 14.9838 29.9882 14.9808 29.9882H11.5781C10.9004 29.9882 10.351 29.4389 10.351 28.7612V23.7183C10.351 23.0406 10.9004 22.4912 11.5781 22.4912H15.3372C19.3164 22.3081 22.4862 19.0241 22.4862 14.9997C22.4862 10.8577 19.1285 7.50005 14.9866 7.50005H14.9864C14.9863 7.50005 14.9862 7.49995 14.9862 7.49984C14.9862 7.49972 14.9861 7.49963 14.986 7.49963H9.03946H8.22866C7.82603 7.49963 7.49963 7.82603 7.49963 8.22867V28.773C7.49963 29.4507 6.95025 30 6.27257 30H1.54489H0.734098C0.328667 30 0 29.6714 0 29.2659V1.2277C0 0.550012 0.549374 0.000637779 1.22706 0.000637779H7.49425C7.49442 0.000637779 7.49457 0.000495007 7.49457 0.000318889Z" fill="url(#paint0_linear_201_1339)"/>
<path d="M40.3157 25.1399C39.922 25.1399 39.6215 25.0311 39.4143 24.8135C39.207 24.5959 39.1034 24.2903 39.1034 23.8966V15.2711C39.1034 14.867 39.207 14.5614 39.4143 14.3541C39.6318 14.1469 39.9375 14.0433 40.3312 14.0433H44.1078C45.3304 14.0433 46.2732 14.3541 46.9363 14.9758C47.5994 15.5871 47.931 16.4419 47.931 17.5401C47.931 18.6384 47.5994 19.4983 46.9363 20.12C46.2732 20.7417 45.3304 21.0525 44.1078 21.0525H41.5124V23.8966C41.5124 24.2903 41.4087 24.5959 41.2015 24.8135C41.0047 25.0311 40.7094 25.1399 40.3157 25.1399ZM41.5124 19.1875H43.7037C44.3254 19.1875 44.7968 19.0476 45.118 18.7679C45.4495 18.4882 45.6153 18.0789 45.6153 17.5401C45.6153 17.0014 45.4495 16.5973 45.118 16.3279C44.7968 16.0585 44.3254 15.9238 43.7037 15.9238H41.5124V19.1875ZM50.6361 25.1399C50.2424 25.1399 49.9419 25.0311 49.7347 24.8135C49.5275 24.5959 49.4239 24.2903 49.4239 23.8966V15.2711C49.4239 14.867 49.5275 14.5614 49.7347 14.3541C49.9523 14.1469 50.258 14.0433 50.6517 14.0433H54.4282C55.6508 14.0433 56.5937 14.3386 57.2568 14.9292C57.9199 15.5197 58.2514 16.3434 58.2514 17.4003C58.2514 18.0841 58.1012 18.6746 57.8007 19.172C57.5003 19.6693 57.0651 20.0527 56.4952 20.322C55.9357 20.5914 55.2467 20.7261 54.4282 20.7261L54.5526 20.4619H55.1898C55.6249 20.4619 56.0031 20.5707 56.3243 20.7883C56.6558 20.9955 56.9408 21.3167 57.1791 21.7518L58.1426 23.5391C58.2877 23.7981 58.355 24.052 58.3447 24.3006C58.3343 24.5493 58.2411 24.7513 58.0649 24.9068C57.8888 25.0622 57.6298 25.1399 57.2879 25.1399C56.9459 25.1399 56.6662 25.0673 56.4486 24.9223C56.2414 24.7772 56.0549 24.5545 55.8891 24.254L54.3972 21.5032C54.2417 21.2131 54.0501 21.0162 53.8221 20.9126C53.6045 20.809 53.3352 20.7572 53.014 20.7572H51.8328V23.8966C51.8328 24.2903 51.7292 24.5959 51.522 24.8135C51.3251 25.0311 51.0298 25.1399 50.6361 25.1399ZM51.8328 19.0166H53.9931C54.6355 19.0166 55.1172 18.887 55.4384 18.628C55.77 18.369 55.9357 17.9805 55.9357 17.4624C55.9357 16.9547 55.77 16.5714 55.4384 16.3124C55.1172 16.0533 54.6355 15.9238 53.9931 15.9238H51.8328V19.0166ZM65.2514 25.171C64.1738 25.171 63.2258 24.9378 62.4073 24.4716C61.5991 23.995 60.9671 23.3319 60.5112 22.4823C60.0657 21.6327 59.843 20.6432 59.843 19.5139C59.843 18.6539 59.9673 17.882 60.2159 17.1982C60.475 16.504 60.8428 15.9135 61.3194 15.4265C61.796 14.9292 62.3658 14.5458 63.0289 14.2764C63.7024 14.007 64.4432 13.8724 65.2514 13.8724C66.3496 13.8724 67.3028 14.1055 68.111 14.5717C68.9191 15.038 69.546 15.6959 69.9915 16.5455C70.4474 17.3847 70.6753 18.369 70.6753 19.4983C70.6753 20.3583 70.5458 21.1354 70.2868 21.8296C70.0278 22.5237 69.6599 23.1195 69.1833 23.6168C68.7067 24.1141 68.1369 24.4975 67.4738 24.7669C66.8107 25.0363 66.0699 25.171 65.2514 25.171ZM65.2514 23.1195C65.8627 23.1195 66.3807 22.9796 66.8055 22.6999C67.2407 22.4098 67.5722 21.9953 67.8002 21.4566C68.0385 20.9074 68.1576 20.2599 68.1576 19.5139C68.1576 18.3742 67.9038 17.4935 67.3961 16.8718C66.8884 16.2398 66.1735 15.9238 65.2514 15.9238C64.6504 15.9238 64.1324 16.0637 63.6972 16.3434C63.2621 16.6232 62.9305 17.0324 62.7026 17.5712C62.4746 18.11 62.3607 18.7575 62.3607 19.5139C62.3607 20.6432 62.6145 21.5291 63.1222 22.1715C63.6299 22.8035 64.3396 23.1195 65.2514 23.1195ZM72.7672 25.1399C72.4564 25.1399 72.1974 25.057 71.9901 24.8912C71.7933 24.7151 71.6793 24.5027 71.6482 24.254C71.6171 23.995 71.7 23.7308 71.8969 23.4614L75.3315 18.9078V19.9801L72.0368 15.5975C71.8399 15.3177 71.7518 15.0535 71.7726 14.8048C71.8036 14.5458 71.9176 14.3334 72.1145 14.1676C72.3217 13.9915 72.5755 13.9034 72.876 13.9034C73.135 13.9034 73.3578 13.9656 73.5443 14.0899C73.7411 14.2143 73.938 14.4111 74.1349 14.6805L76.6992 18.2239H75.9221L78.4709 14.6805C78.6678 14.4008 78.8646 14.2039 79.0615 14.0899C79.2583 13.9656 79.4863 13.9034 79.7453 13.9034C80.0561 13.9034 80.31 13.9863 80.5068 14.1521C80.714 14.3179 80.828 14.5303 80.8487 14.7893C80.8798 15.038 80.7918 15.3073 80.5845 15.5975L77.2742 19.9801V18.9078L80.6933 23.4614C80.9005 23.7308 80.9886 23.995 80.9575 24.254C80.9368 24.5027 80.8228 24.7151 80.6156 24.8912C80.4188 25.057 80.1597 25.1399 79.8385 25.1399C79.5899 25.1399 79.3671 25.0777 79.1703 24.9534C78.9838 24.829 78.7869 24.627 78.5797 24.3473L75.9066 20.6639H76.6992L74.0261 24.3473C73.8292 24.627 73.6323 24.829 73.4355 24.9534C73.2386 25.0777 73.0159 25.1399 72.7672 25.1399ZM86.4999 25.1399C86.1061 25.1399 85.8057 25.0311 85.5985 24.8135C85.3912 24.5959 85.2876 24.2851 85.2876 23.881V19.374L85.785 20.7572L82.1172 15.5508C81.9721 15.3332 81.91 15.1001 81.9307 14.8515C81.9514 14.5924 82.055 14.3697 82.2415 14.1832C82.428 13.9967 82.6922 13.9034 83.0341 13.9034C83.2828 13.9034 83.5055 13.9656 83.7024 14.0899C83.9096 14.2143 84.1065 14.4111 84.293 14.6805L86.7796 18.2706H86.2823L88.7689 14.6805C88.9658 14.4008 89.1574 14.2039 89.3439 14.0899C89.5408 13.9656 89.7687 13.9034 90.0278 13.9034C90.3593 13.9034 90.6183 13.9915 90.8048 14.1676C90.9913 14.3334 91.0898 14.5458 91.1001 14.8048C91.1105 15.0535 91.0224 15.3125 90.8359 15.5819L87.2148 20.7572L87.6965 19.374V23.881C87.6965 24.7203 87.2977 25.1399 86.4999 25.1399Z" fill="url(#paint1_linear_201_1339)"/>
<defs>
<linearGradient id="paint0_linear_201_1339" x1="-13.3393" y1="43.3007" x2="39.1734" y2="-5.24994" gradientUnits="userSpaceOnUse">
<stop stop-color="#0A6FCC"/>
<stop offset="1" stop-color="#3BED4D" stop-opacity="0.75"/>
</linearGradient>
<linearGradient id="paint1_linear_201_1339" x1="13.9777" y1="40.754" x2="42.4762" y2="-23.9501" gradientUnits="userSpaceOnUse">
<stop stop-color="#0A6FCC"/>
<stop offset="1" stop-color="#3BED4D" stop-opacity="0.75"/>
</linearGradient>
</defs>
</svg>
