<svg width="30" height="18" viewBox="0 0 30 18" fill="none" xmlns="http://www.w3.org/2000/svg">
<path d="M30 9C30 13.9524 26 18 21 18C16.0476 18 12 13.9524 12 9C12 4.04762 16 0 20.9524 0C26 0 30 4.04762 30 9Z" fill="#FFB600"/>
<path d="M21 0C25.9524 0 30 4.04762 30 9C30 13.9524 26 18 21 18C16.0476 18 12 13.9524 12 9" fill="#F7981D"/>
<path d="M21 0C25.9524 0 30 4.04762 30 9C30 13.9524 26 18 21 18" fill="#FF8500"/>
<path d="M8.90478 0C4.00002 0.047619 1.52588e-05 4.04762 1.52588e-05 9C1.52588e-05 13.9524 4.00002 18 9.00002 18C11.3333 18 13.4286 17.0952 15.0476 15.6667C15.381 15.381 15.6667 15.0476 15.9524 14.7143H14.0953C13.8572 14.4286 13.6191 14.0952 13.4286 13.8095H16.6191C16.8095 13.5238 17 13.1905 17.1429 12.8571H12.9048C12.7619 12.5714 12.6191 12.2381 12.5238 11.9048H17.4762C17.7619 11 17.9524 10.0476 17.9524 9.04762C17.9524 8.38095 17.8572 7.7619 17.7619 7.14286H12.2381C12.2857 6.80952 12.381 6.52381 12.4762 6.19048H17.4286C17.3333 5.85714 17.1905 5.52381 17.0476 5.2381H12.8572C13 4.90476 13.1905 4.61905 13.381 4.28571H16.5714C16.381 3.95238 16.1429 3.61905 15.8572 3.33333H14.0953C14.381 3 14.6667 2.71429 15 2.42857C13.4286 0.952381 11.2857 0.095238 8.9524 0.095238C8.9524 -9.22453e-08 8.9524 0 8.90478 0Z" fill="#FF5050"/>
<path d="M1.52588e-05 8.99949C1.52588e-05 13.9519 4.00002 17.9995 9.00002 17.9995C11.3333 17.9995 13.4286 17.0947 15.0476 15.6662C15.381 15.3804 15.6667 15.0471 15.9524 14.7138H14.0953C13.8572 14.4281 13.6191 14.0947 13.4286 13.809H16.6191C16.8095 13.5233 17 13.19 17.1429 12.8566H12.9048C12.7619 12.5709 12.6191 12.2376 12.5238 11.9042H17.4762C17.7619 10.9995 17.9524 10.0471 17.9524 9.04711C17.9524 8.38044 17.8572 7.76139 17.7619 7.14235H12.2381C12.2857 6.80901 12.381 6.5233 12.4762 6.18996H17.4286C17.3333 5.85663 17.1905 5.5233 17.0476 5.23758H12.8572C13 4.90425 13.1905 4.61854 13.381 4.2852H16.5714C16.381 3.95187 16.1429 3.61854 15.8572 3.33282H14.0953C14.381 2.99949 14.6667 2.71377 15 2.42806C13.4286 0.95187 11.2857 0.0947266 8.9524 0.0947266H8.90478" fill="#E52836"/>
<path d="M9.00002 17.9995C11.3334 17.9995 13.4286 17.0947 15.0476 15.6662C15.381 15.3804 15.6667 15.0471 15.9524 14.7138H14.0953C13.8572 14.4281 13.6191 14.0947 13.4286 13.809H16.6191C16.8095 13.5233 17 13.19 17.1429 12.8566H12.9048C12.7619 12.5709 12.6191 12.2376 12.5238 11.9042H17.4762C17.7619 10.9995 17.9524 10.0471 17.9524 9.04711C17.9524 8.38044 17.8572 7.76139 17.7619 7.14235H12.2381C12.2857 6.80901 12.381 6.5233 12.4762 6.18996H17.4286C17.3334 5.85663 17.1905 5.5233 17.0476 5.23758H12.8572C13 4.90425 13.1905 4.61854 13.381 4.2852H16.5715C16.381 3.95187 16.1429 3.61854 15.8572 3.33282H14.0953C14.381 2.99949 14.6667 2.71377 15 2.42806C13.4286 0.95187 11.2857 0.0947266 8.9524 0.0947266H8.90479" fill="#CB2026"/>
<path d="M12.1905 11.2851L12.3334 10.4755C12.2857 10.4755 12.1905 10.5232 12.0953 10.5232C11.7619 10.5232 11.7143 10.3327 11.7619 10.2374L12.0476 8.57078H12.5714L12.7143 7.66602H12.2381L12.3334 7.09459H11.381C11.381 7.09459 10.8095 10.2374 10.8095 10.6184C10.8095 11.1898 11.1429 11.4279 11.5714 11.4279C11.8572 11.4279 12.0953 11.3327 12.1905 11.2851ZM12.5238 9.76125C12.5238 11.0946 13.4286 11.4279 14.1905 11.4279C14.9048 11.4279 15.1905 11.2851 15.1905 11.2851L15.381 10.3803C15.381 10.3803 14.8572 10.6184 14.381 10.6184C13.3334 10.6184 13.5238 9.85649 13.5238 9.85649H15.4762C15.4762 9.85649 15.6191 9.23744 15.6191 8.99935C15.6191 8.3803 15.2857 7.6184 14.2381 7.6184C13.2381 7.52316 12.5238 8.57078 12.5238 9.76125ZM14.1905 8.3803C14.7143 8.3803 14.6191 8.99935 14.6191 9.04697H13.5714C13.5714 8.99935 13.6667 8.3803 14.1905 8.3803ZM20.2381 11.2851L20.4286 10.2374C20.4286 10.2374 19.9524 10.4755 19.6191 10.4755C18.9524 10.4755 18.6667 9.95173 18.6667 9.3803C18.6667 8.23744 19.2381 7.6184 19.9048 7.6184C20.381 7.6184 20.7619 7.90411 20.7619 7.90411L20.9048 6.90411C20.9048 6.90411 20.3334 6.66602 19.8095 6.66602C18.7143 6.66602 17.6191 7.6184 17.6191 9.42792C17.6191 10.6184 18.1905 11.4279 19.3334 11.4279C19.7143 11.4279 20.2381 11.2851 20.2381 11.2851ZM6.9524 7.52316C6.28573 7.52316 5.80954 7.71363 5.80954 7.71363L5.66669 8.52316C5.66669 8.52316 6.09526 8.33268 6.71431 8.33268C7.04764 8.33268 7.33335 8.3803 7.33335 8.66602C7.33335 8.85649 7.28573 8.90411 7.28573 8.90411H6.85716C6.04764 8.90411 5.14288 9.23744 5.14288 10.3327C5.14288 11.1898 5.71431 11.3803 6.04764 11.3803C6.7143 11.3803 7.00002 10.9517 7.04764 10.9517L7.00002 11.3327H7.85716L8.23811 8.71363C8.23811 7.57078 7.28573 7.52316 6.9524 7.52316ZM7.14288 9.66602C7.14288 9.80887 7.04764 10.5708 6.47621 10.5708C6.1905 10.5708 6.09526 10.3327 6.09526 10.1898C6.09526 9.95173 6.23811 9.6184 6.9524 9.6184C7.09526 9.66602 7.14288 9.66602 7.14288 9.66602ZM9.14288 11.3803C9.38097 11.3803 10.5714 11.4279 10.5714 10.1422C10.5714 8.95173 9.42859 9.18982 9.42859 8.71363C9.42859 8.47554 9.61907 8.3803 9.9524 8.3803C10.0953 8.3803 10.6191 8.42792 10.6191 8.42792L10.7619 7.57078C10.7619 7.57078 10.4286 7.47554 9.85716 7.47554C9.14288 7.47554 8.42859 7.76125 8.42859 8.71363C8.42859 9.80887 9.61907 9.71364 9.61907 10.1422C9.61907 10.4279 9.28573 10.4755 9.04764 10.4755C8.61907 10.4755 8.1905 10.3327 8.1905 10.3327L8.04764 11.1898C8.09526 11.2851 8.33335 11.3803 9.14288 11.3803ZM28.1429 6.76125L27.9524 8.04697C27.9524 8.04697 27.5714 7.57078 27.0476 7.57078C26.1905 7.57078 25.4286 8.6184 25.4286 9.85649C25.4286 10.6184 25.8095 11.4279 26.6191 11.4279C27.1905 11.4279 27.5238 11.047 27.5238 11.047L27.4762 11.3803H28.4286L29.1429 6.80887L28.1429 6.76125ZM27.7143 9.28506C27.7143 9.80887 27.4762 10.4755 26.9524 10.4755C26.6191 10.4755 26.4286 10.1898 26.4286 9.71363C26.4286 8.95173 26.7619 8.47554 27.1905 8.47554C27.5238 8.47554 27.7143 8.71363 27.7143 9.28506ZM1.76192 11.3327L2.33335 7.90411L2.42859 11.3327H3.09526L4.33335 7.90411L3.80954 11.3327H4.80954L5.57145 6.76125H4.00002L3.04764 9.57078L3.00002 6.76125H1.61907L0.857162 11.3327H1.76192ZM16.5238 11.3327C16.8095 9.76125 16.8572 8.47554 17.5238 8.71363C17.6191 8.09459 17.7619 7.85649 17.8572 7.6184H17.6667C17.2381 7.6184 16.9048 8.18982 16.9048 8.18982L17 7.66602H16.0953L15.4762 11.3803H16.5238V11.3327ZM22.4286 7.52316C21.7619 7.52316 21.2857 7.71363 21.2857 7.71363L21.1429 8.52316C21.1429 8.52316 21.5714 8.33268 22.1905 8.33268C22.5238 8.33268 22.8095 8.3803 22.8095 8.66602C22.8095 8.85649 22.7619 8.90411 22.7619 8.90411H22.3334C21.5238 8.90411 20.6191 9.23744 20.6191 10.3327C20.6191 11.1898 21.1905 11.3803 21.5238 11.3803C22.1905 11.3803 22.4762 10.9517 22.5238 10.9517L22.4762 11.3327H23.3334L23.7143 8.71363C23.7619 7.57078 22.7619 7.52316 22.4286 7.52316ZM22.6667 9.66602C22.6667 9.80887 22.5714 10.5708 22 10.5708C21.7143 10.5708 21.6191 10.3327 21.6191 10.1898C21.6191 9.95173 21.7619 9.6184 22.4762 9.6184C22.6191 9.66602 22.6191 9.66602 22.6667 9.66602ZM24.5238 11.3327C24.8095 9.76125 24.8572 8.47554 25.5238 8.71363C25.6191 8.09459 25.7619 7.85649 25.8572 7.6184H25.6667C25.2381 7.6184 24.9048 8.18982 24.9048 8.18982L25 7.66602H24.0953L23.4762 11.3803H24.5238V11.3327Z" fill="white"/>
<path d="M10.7143 10.6184C10.7143 11.1898 11.0476 11.4279 11.4762 11.4279C11.8095 11.4279 12.0953 11.3327 12.1905 11.2851L12.3334 10.4755C12.2857 10.4755 12.1905 10.5232 12.0953 10.5232C11.7619 10.5232 11.7143 10.3327 11.7619 10.2374L12.0476 8.57078H12.5714L12.7143 7.66602H12.2381L12.3334 7.09459M13 9.76125C13 11.0946 13.4286 11.4279 14.1905 11.4279C14.9048 11.4279 15.1905 11.2851 15.1905 11.2851L15.381 10.3803C15.381 10.3803 14.8572 10.6184 14.381 10.6184C13.3334 10.6184 13.5238 9.85649 13.5238 9.85649H15.4762C15.4762 9.85649 15.6191 9.23744 15.6191 8.99935C15.6191 8.3803 15.2857 7.6184 14.2381 7.6184C13.2381 7.52316 13 8.57078 13 9.76125ZM14.1905 8.3803C14.7143 8.3803 14.8095 8.99935 14.8095 9.04697H13.5714C13.5714 8.99935 13.6667 8.3803 14.1905 8.3803ZM20.2381 11.2851L20.4286 10.2374C20.4286 10.2374 19.9524 10.4755 19.6191 10.4755C18.9524 10.4755 18.6667 9.95173 18.6667 9.3803C18.6667 8.23744 19.2381 7.6184 19.9048 7.6184C20.381 7.6184 20.7619 7.90411 20.7619 7.90411L20.9048 6.90411C20.9048 6.90411 20.3334 6.66602 19.8095 6.66602C18.7143 6.66602 18.0953 7.6184 18.0953 9.42792C18.0953 10.6184 18.1905 11.4279 19.3334 11.4279C19.7143 11.4279 20.2381 11.2851 20.2381 11.2851ZM5.66669 8.57078C5.66669 8.57078 6.09526 8.3803 6.71431 8.3803C7.04764 8.3803 7.33335 8.42792 7.33335 8.71363C7.33335 8.90411 7.28573 8.95173 7.28573 8.95173H6.85716C6.04764 8.95173 5.14288 9.28506 5.14288 10.3803C5.14288 11.2374 5.71431 11.4279 6.04764 11.4279C6.7143 11.4279 7.00002 10.9993 7.04764 10.9993L7.00002 11.3803H7.85716L8.23811 8.76125C8.23811 7.66602 7.28573 7.6184 6.90478 7.6184M7.61907 9.66602C7.61907 9.80887 7.04764 10.5708 6.47621 10.5708C6.1905 10.5708 6.09526 10.3327 6.09526 10.1898C6.09526 9.95173 6.23811 9.6184 6.9524 9.6184C7.09526 9.66602 7.61907 9.66602 7.61907 9.66602ZM8.09526 11.2851C8.09526 11.2851 8.38097 11.3803 9.1905 11.3803C9.42859 11.3803 10.6191 11.4279 10.6191 10.1422C10.6191 8.95173 9.47621 9.18982 9.47621 8.71363C9.47621 8.47554 9.66669 8.3803 10 8.3803C10.1429 8.3803 10.6667 8.42792 10.6667 8.42792L10.8095 7.57078C10.8095 7.57078 10.4762 7.47554 9.90478 7.47554C9.1905 7.47554 8.9524 7.76125 8.9524 8.71363C8.9524 9.80887 9.66669 9.71364 9.66669 10.1422C9.66669 10.4279 9.33335 10.4755 9.09526 10.4755M27.9524 8.04697C27.9524 8.04697 27.5714 7.57078 27.0476 7.57078C26.1905 7.57078 25.9048 8.6184 25.9048 9.85649C25.9048 10.6184 25.8095 11.4279 26.6191 11.4279C27.1905 11.4279 27.5238 11.047 27.5238 11.047L27.4762 11.3803H28.4286L29.1429 6.80887M27.9048 9.28506C27.9048 9.80887 27.4762 10.4755 26.9524 10.4755C26.6191 10.4755 26.4286 10.1898 26.4286 9.71363C26.4286 8.95173 26.7619 8.47554 27.1905 8.47554C27.5238 8.47554 27.9048 8.71363 27.9048 9.28506ZM1.76192 11.3327L2.33335 7.90411L2.42859 11.3327H3.09526L4.33335 7.90411L3.80954 11.3327H4.80954L5.57145 6.76125H4.38097L3.04764 9.57078L3.00002 6.76125H2.47621L0.857162 11.3327H1.76192ZM15.5238 11.3327H16.5238C16.8095 9.76125 16.8572 8.47554 17.5238 8.71363C17.6191 8.09459 17.7619 7.85649 17.8572 7.6184H17.6667C17.2381 7.6184 16.9048 8.18982 16.9048 8.18982L17 7.66602M21.1429 8.57078C21.1429 8.57078 21.5714 8.3803 22.1905 8.3803C22.5238 8.3803 22.8095 8.42792 22.8095 8.71363C22.8095 8.90411 22.7619 8.95173 22.7619 8.95173H22.3334C21.5238 8.95173 20.6191 9.28506 20.6191 10.3803C20.6191 11.2374 21.1905 11.4279 21.5238 11.4279C22.1905 11.4279 22.4762 10.9993 22.5238 10.9993L22.4762 11.3803H23.3334L23.7143 8.76125C23.7143 7.66602 22.7619 7.6184 22.381 7.6184M23.0953 9.66602C23.0953 9.80887 22.5238 10.5708 21.9524 10.5708C21.6667 10.5708 21.5714 10.3327 21.5714 10.1898C21.5714 9.95173 21.7143 9.6184 22.4286 9.6184C22.6191 9.66602 23.0953 9.66602 23.0953 9.66602ZM23.5238 11.3327H24.5238C24.8095 9.76125 24.8572 8.47554 25.5238 8.71363C25.6191 8.09459 25.7619 7.85649 25.8572 7.6184H25.6667C25.2381 7.6184 24.9048 8.18982 24.9048 8.18982L25 7.66602" fill="#DCE5E5"/>
</svg>
