<svg width="30" height="31" viewBox="0 0 30 31" fill="none" xmlns="http://www.w3.org/2000/svg">
<path d="M14.9998 30.4998C23.284 30.4998 29.9996 23.7841 29.9996 15.4999C29.9996 7.21577 23.284 0.500122 14.9998 0.500122C6.71565 0.500122 0 7.21577 0 15.4999C0 23.7841 6.71565 30.4998 14.9998 30.4998Z" fill="#41B4E6"/>
<path d="M30 15.4997C30 15.1342 29.9862 14.772 29.9606 14.413L23.7438 8.19641L6.25616 15.0753L12.947 21.7662L13.0348 22.0821L13.1484 21.9676L13.1489 21.9681L13.0348 22.0821L20.4362 29.4835C26.0331 27.3062 30 21.8665 30 15.4997Z" fill="#0091C8"/>
<path d="M13.5432 17.6851L20.322 22.8031L23.7438 8.19641L6.25607 15.0753L11.5774 16.8378L21.2889 10.3236L13.5432 17.6851Z" fill="white"/>
<path d="M11.5774 16.8376L13.0348 22.082L13.5432 17.6848L21.2889 10.3234L11.5774 16.8376Z" fill="#D2D2D7"/>
<path d="M15.7463 19.349L13.0348 22.0828L13.5432 17.6857L15.7463 19.349Z" fill="#B9B9BE"/>
</svg>
